<svg width="1920" height="589" viewBox="0 0 1920 589" fill="none" xmlns="http://www.w3.org/2000/svg">
    <g opacity="0.5">
        <g filter="url(#filter0_d_58_297)">
            <path fill-rule="evenodd" clip-rule="evenodd" d="M249.611 49.4949V32.9966H233.107V16.4983H216.604V0H16.5032V16.4983H0V249.537H16.5032V266.035H233.107V249.537H249.611V233.039H264.115V249.537H280.619V266.035H513.726V249.537H530.229V233.039H544.734V249.537H561.237V266.035H761.338V249.537H777.841V233.039H792.346V249.537H808.849V266.035H1041.96V249.537H1072.96V266.035H1190.55V249.537H1221.49V266.035H1306.07V249.537H1322.58V16.4983H1306.07V0H1221.49V16.4983H1190.55V0H1072.96V16.4983H1041.96V0H808.849V16.4983H777.841V0H561.237V32.9966H530.229V16.4983H513.726V0H280.619V16.4983H264.115V49.4949H249.611ZM528.231 68.0555H513.726V98.9899H528.231V68.0555ZM528.231 150.547H513.726V181.481H528.231V150.547ZM792.346 68.0555H777.841V98.9899H792.346V68.0555ZM661.288 67.0244H760.307V50.5261H776.81V34.0278H760.307V17.5295H578.772V34.0278H595.275V50.5261H578.772V67.0244H562.269V50.5261H545.765V215.509H562.269V232.008H578.772V248.506H743.804V232.008H760.307V215.509H776.81V116.519H760.307V100.021H694.294V116.519H677.791V133.018H694.294V149.516H710.797V182.513H661.288V67.0244ZM1056.46 68.0555H1041.96V98.9899H1056.46V68.0555ZM1056.46 150.547H1041.96V181.481H1056.46V150.547ZM1222.52 116.519H1206.02V100.021H1189.52V34.0278H1173.02V17.5295H1090.5V34.0278H1074V232.008H1090.5V248.506H1173.02V232.008H1189.52V166.014H1206.02V182.513H1222.52V232.008H1239.03V248.506H1288.54V232.008H1305.04V34.0278H1288.54V17.5295H1239.03V34.0278H1222.52V116.519ZM1107 67.0244V50.5261H1123.51V34.0278H1090.5V67.0244H1107ZM199.07 17.5295V34.0278H215.573V50.5261H232.076V67.0244H248.579V215.509H232.076V232.008H215.573V248.506H34.0378V232.008H17.5346V34.0278H34.0378V67.0244H50.541V50.5261H67.0442V34.0278H34.0378V17.5295H199.07ZM165.032 148.485H150.592V101.052H165.032V148.485ZM281.65 232.008H298.153V248.506H496.191V232.008H512.695V199.011H496.191V182.513H397.172V149.516H496.191V133.018H512.695V116.519H496.191V100.021H397.172V67.0244H496.191V50.5261H512.695V34.0278H496.191V17.5295H298.153V34.0278H281.65V232.008ZM298.153 67.0244H314.656V50.5261H331.16V34.0278H298.153V67.0244ZM809.881 232.008H826.384V248.506H1024.42V232.008H1040.93V199.011H1024.42V182.513H925.403V149.516H1024.42V133.018H1040.93V116.519H1024.42V100.021H925.403V67.0244H1024.42V50.5261H1040.93V34.0278H1024.42V17.5295H826.384V34.0278H809.881V232.008ZM826.384 67.0244H842.887V50.5261H859.39V34.0278H826.384V67.0244ZM182.566 83.5227H166.063V67.0244H133.057V182.513H166.063V166.014H182.566V83.5227Z" fill="#1D1A59"/>
        </g>
        <g filter="url(#filter1_d_58_297)">
            <path fill-rule="evenodd" clip-rule="evenodd" d="M812.998 338.038V354.537H829.501V371.035H846.004V470.025H829.501V486.523H812.998V503.022H730.482V552.517H713.979V569.015H631.463V552.517H614.959V354.537H631.463V387.533H647.966V371.035H664.469V354.537H631.463V338.038H812.998ZM613.928 337.007V320.509H830.532V337.007H847.035V353.506H894.547V320.509H1078.14V337.007H1094.65V353.506H1111.15V370.004H1125.66V337.007H1142.16V320.509H1358.76V337.007H1375.27V353.506H1389.77V337.007H1406.27V320.509H1639.38V337.007H1670.39V320.509H1771.47V337.007H1802.41V320.509H1903.5V337.007H1920V421.561H1903.5V438.06H1886.99V454.558H1870.49V471.056H1853.99V570.046H1837.48V586.544H1736.4V570.046H1719.9V471.056H1703.4V454.558H1686.89V438.06H1670.39V421.561H1653.89V405.063H1639.38V421.561H1589.87V570.046H1573.37V586.544H1472.29V570.046H1455.78V421.561H1406.27V405.063H1391.77V454.558H1375.27V468.994H1391.77V570.046H1375.27V586.544H1307.19V570.046H1290.69V553.548H1276.25V570.046H1259.74V586.544H1142.16V570.046H1111.15V586.544H1043.08V570.046H1026.57V471.056H1012.13V570.046H995.629V586.544H878.043V570.046H861.54V487.554H847.035V504.053H830.532V520.551H748.016V570.046H731.513V586.544H613.928V570.046H597.425V337.007H613.928ZM1291.72 519.52V536.018H1308.22V552.517H1324.73V569.015H1357.73V552.517H1374.23V486.523H1357.73V470.025H1341.23V453.527H1357.73V437.028H1374.23V371.035H1357.73V354.537H1341.23V338.038H1159.69V354.537H1143.19V552.517H1159.69V569.015H1242.21V552.517H1258.71V503.022H1275.22V519.52H1291.72ZM1176.2 387.533V371.035H1192.7V354.537H1159.69V387.533H1176.2ZM1473.32 404.032V552.517H1489.82V569.015H1555.83V552.517H1572.34V404.032H1621.85V387.533H1638.35V354.537H1621.85V338.038H1423.81V354.537H1407.31V387.533H1423.81V404.032H1473.32ZM1440.31 371.035H1456.82V354.537H1423.81V387.533H1440.31V371.035ZM1836.45 453.527H1852.96V437.028H1869.46V420.53H1885.96V404.032H1902.47V354.537H1885.96V338.038H1819.95V354.537H1803.45V371.035H1770.44V354.537H1753.94V338.038H1687.92V354.537H1671.42V404.032H1687.92V420.53H1704.43V437.028H1720.93V453.527H1737.43V552.517H1753.94V569.015H1819.95V552.517H1836.45V453.527ZM1704.43 387.533V371.035H1720.93V354.537H1687.92V387.533H1704.43ZM1060.61 338.038V354.537H1077.11V371.035H1093.62V387.533H1110.12V552.517H1093.62V569.015H1060.61V552.517H1044.11V453.527H994.597V552.517H978.094V569.015H895.578V552.517H879.075V371.035H895.578V387.533H912.081V371.035H928.584V354.537H912.081V338.038H1060.61ZM763.488 387.533V453.527H730.482V387.533H763.488ZM1044.11 387.533V420.53H994.597V387.533H1044.11ZM1308.22 420.53V387.533H1258.71V420.53H1308.22Z" fill="#1D1A59"/>
        </g>
    </g>
    <defs>
        <filter id="filter0_d_58_297" x="0" y="0" width="1324.58" height="268.035" filterUnits="userSpaceOnUse" color-interpolation-filters="sRGB">
            <feFlood flood-opacity="0" result="BackgroundImageFix"/>
            <feColorMatrix in="SourceAlpha" type="matrix" values="0 0 0 0 0 0 0 0 0 0 0 0 0 0 0 0 0 0 127 0" result="hardAlpha"/>
            <feOffset dx="2" dy="2"/>
            <feComposite in2="hardAlpha" operator="out"/>
            <feColorMatrix type="matrix" values="0 0 0 0 0.160784 0 0 0 0 0.196078 0 0 0 0 0.407843 0 0 0 1 0"/>
            <feBlend mode="normal" in2="BackgroundImageFix" result="effect1_dropShadow_58_297"/>
            <feBlend mode="normal" in="SourceGraphic" in2="effect1_dropShadow_58_297" result="shape"/>
        </filter>
        <filter id="filter1_d_58_297" x="597.425" y="320.509" width="1324.58" height="268.035" filterUnits="userSpaceOnUse" color-interpolation-filters="sRGB">
            <feFlood flood-opacity="0" result="BackgroundImageFix"/>
            <feColorMatrix in="SourceAlpha" type="matrix" values="0 0 0 0 0 0 0 0 0 0 0 0 0 0 0 0 0 0 127 0" result="hardAlpha"/>
            <feOffset dx="2" dy="2"/>
            <feComposite in2="hardAlpha" operator="out"/>
            <feColorMatrix type="matrix" values="0 0 0 0 0.160784 0 0 0 0 0.196078 0 0 0 0 0.407843 0 0 0 1 0"/>
            <feBlend mode="normal" in2="BackgroundImageFix" result="effect1_dropShadow_58_297"/>
            <feBlend mode="normal" in="SourceGraphic" in2="effect1_dropShadow_58_297" result="shape"/>
        </filter>
    </defs>
</svg>
